<svg viewBox="0 0 40 40" class="" fill="none" xmlns="http://www.w3.org/2000/svg"><rect width="40" height="40" rx="20" fill="#FEF08A"></rect><path d="M18.34 23.84C17.652 23.78 16.954 23.75 16.25 23.75H15.5C14.3065 23.75 13.1619 23.2759 12.318 22.432C11.4741 21.5881 11 20.4435 11 19.25C11 18.0565 11.4741 16.9119 12.318 16.068C13.1619 15.2241 14.3065 14.75 15.5 14.75H16.25C16.954 14.75 17.652 14.72 18.34 14.66M18.34 23.84C18.593 24.802 18.924 25.732 19.325 26.623C19.572 27.173 19.385 27.833 18.862 28.134L18.205 28.514C17.654 28.832 16.945 28.631 16.678 28.053C16.0443 26.682 15.5615 25.2463 15.238 23.771M18.34 23.84C17.947 22.3417 17.7487 20.799 17.75 19.25C17.75 17.664 17.955 16.126 18.34 14.66M18.34 23.84C21.4215 24.1041 24.4222 24.9651 27.175 26.375M18.34 14.66C21.4215 14.3959 24.4223 13.5349 27.175 12.125M27.175 26.375C27.057 26.755 26.93 27.129 26.795 27.5M27.175 26.375C27.719 24.6216 28.0592 22.8113 28.189 20.98M27.175 12.125C27.0577 11.7469 26.931 11.3718 26.795 11M27.175 12.125C27.719 13.8784 28.0592 15.6887 28.189 17.52M28.189 17.52C28.684 17.933 29 18.555 29 19.25C29 19.945 28.684 20.567 28.189 20.98M28.189 17.52C28.2711 18.6719 28.2711 19.8281 28.189 20.98" stroke="black" stroke-width="1.5" stroke-linecap="round" stroke-linejoin="round"></path></svg>
